[Header]
FileType HTR
DataType HTRS
FileVersion 1
NumSegments 64
NumFrames 3
DataFrameRate 24
EulerRotationOrder ZYX
CalibrationUnits mm
RotationUnits Degrees
GlobalAxisofGravity Y
BoneLengthAxis Y
ScaleFactor 1.0
[SegmentNames&Hierarchy]
Hips	GLOBAL
Spine	Hips
Spine1	Spine
Spine2	Spine1
Neck	Spine2
Head	Neck
LeftEye	Head
RightEye	Head
LeftShoulder	Spine2
LeftArm	LeftShoulder
LeftForeArm	LeftArm
LeftHand	LeftForeArm
LeftHandThumb1	LeftHand
LeftHandThumb2	LeftHandThumb1
LeftHandThumb3	LeftHandThumb2
LeftHandThumb4	LeftHandThumb3
LeftHandIndex1	LeftHand
LeftHandIndex2	LeftHandIndex1
LeftHandIndex3	LeftHandIndex2
LeftHandIndex4	LeftHandIndex3
LeftHandMiddle1	LeftHand
LeftHandMiddle2	LeftHandMiddle1
LeftHandMiddle3	LeftHandMiddle2
LeftHandMiddle4	LeftHandMiddle3
LeftHandRing1	LeftHand
LeftHandRing2	LeftHandRing1
LeftHandRing3	LeftHandRing2
LeftHandRing4	LeftHandRing3
LeftHandPinky1	LeftHand
LeftHandPinky2	LeftHandPinky1
LeftHandPinky3	LeftHandPinky2
LeftHandPinky4	LeftHandPinky3
RightShoulder	Spine2
RightArm	RightShoulder
RightForeArm	RightArm
RightHand	RightForeArm
RightHandPinky1	RightHand
RightHandPinky2	RightHandPinky1
RightHandPinky3	RightHandPinky2
RightHandPinky4	RightHandPinky3
RightHandRing1	RightHand
RightHandRing2	RightHandRing1
RightHandRing3	RightHandRing2
RightHandRing4	RightHandRing3
RightHandMiddle1	RightHand
RightHandMiddle2	RightHandMiddle1
RightHandMiddle3	RightHandMiddle2
RightHandMiddle4	RightHandMiddle3
RightHandIndex1	RightHand
RightHandIndex2	RightHandIndex1
RightHandIndex3	RightHandIndex2
RightHandIndex4	RightHandIndex3
RightHandThumb1	RightHand
RightHandThumb2	RightHandThumb1
RightHandThumb3	RightHandThumb2
RightHandThumb4	RightHandThumb3
LeftUpLeg	Hips
LeftLeg	LeftUpLeg
LeftFoot	LeftLeg
LeftToeBase	LeftFoot
RightUpLeg	Hips
RightLeg	RightUpLeg
RightFoot	RightLeg
RightToeBase	RightFoot
[BasePosition]
Hips	0	0	0	0	0	0	1
Spine	0	0	0	0	0	0	1
Spine1	0	0	0	0	0	0	1
Spine2	0	0	0	0	0	0	1
Neck	0	0	0	0	0	0	1
Head	0	0	0	0	0	0	1
LeftEye	0	0	0	0	0	0	1
RightEye	0	0	0	0	0	0	1
LeftShoulder	0	0	0	0	0	0	1
LeftArm	0	0	0	0	0	0	1
LeftForeArm	0	0	0	0	0	0	1
LeftHand	0	0	0	0	0	0	1
LeftHandThumb1	0	0	0	0	0	0	1
LeftHandThumb2	0	0	0	0	0	0	1
LeftHandThumb3	0	0	0	0	0	0	1
LeftHandThumb4	0	0	0	0	0	0	1
LeftHandIndex1	0	0	0	0	0	0	1
LeftHandIndex2	0	0	0	0	0	0	1
LeftHandIndex3	0	0	0	0	0	0	1
LeftHandIndex4	0	0	0	0	0	0	1
LeftHandMiddle1	0	0	0	0	0	0	1
LeftHandMiddle2	0	0	0	0	0	0	1
LeftHandMiddle3	0	0	0	0	0	0	1
LeftHandMiddle4	0	0	0	0	0	0	1
LeftHandRing1	0	0	0	0	0	0	1
LeftHandRing2	0	0	0	0	0	0	1
LeftHandRing3	0	0	0	0	0	0	1
LeftHandRing4	0	0	0	0	0	0	1
LeftHandPinky1	0	0	0	0	0	0	1
LeftHandPinky2	0	0	0	0	0	0	1
LeftHandPinky3	0	0	0	0	0	0	1
LeftHandPinky4	0	0	0	0	0	0	1
RightShoulder	0	0	0	0	0	0	1
RightArm	0	0	0	0	0	0	1
RightForeArm	0	0	0	0	0	0	1
RightHand	0	0	0	0	0	0	1
RightHandPinky1	0	0	0	0	0	0	1
RightHandPinky2	0	0	0	0	0	0	1
RightHandPinky3	0	0	0	0	0	0	1
RightHandPinky4	0	0	0	0	0	0	1
RightHandRing1	0	0	0	0	0	0	1
RightHandRing2	0	0	0	0	0	0	1
RightHandRing3	0	0	0	0	0	0	1
RightHandRing4	0	0	0	0	0	0	1
RightHandMiddle1	0	0	0	0	0	0	1
RightHandMiddle2	0	0	0	0	0	0	1
RightHandMiddle3	0	0	0	0	0	0	1
RightHandMiddle4	0	0	0	0	0	0	1
RightHandIndex1	0	0	0	0	0	0	1
RightHandIndex2	0	0	0	0	0	0	1
RightHandIndex3	0	0	0	0	0	0	1
RightHandIndex4	0	0	0	0	0	0	1
RightHandThumb1	0	0	0	0	0	0	1
RightHandThumb2	0	0	0	0	0	0	1
RightHandThumb3	0	0	0	0	0	0	1
RightHandThumb4	0	0	0	0	0	0	1
LeftUpLeg	0	0	0	0	0	0	1
LeftLeg	0	0	0	0	0	0	1
LeftFoot	0	0	0	0	0	0	1
LeftToeBase	0	0	0	0	0	0	1
RightUpLeg	0	0	0	0	0	0	1
RightLeg	0	0	0	0	0	0	1
RightFoot	0	0	0	0	0	0	1
RightToeBase	0	0	0	0	0	0	1
[Hips]
9	-682.3743286	973.9779663	43.4919281	-63.32992935	-85.44790649	63.62028885	1.0
10	-761.3971558	987.4716187	47.87243652	-64.70108795	-84.04656982	65.10417938	1.0
11	-834.8666992	1004.045959	48.79484177	-69.17487335	-83.68836212	70.20626068	1.0
[Spine]
9	0	101.8159943	1.315000057	3.711018562	13.31110573	-3.572210312	1.0
10	0	101.8159943	1.315000057	4.02401638	12.91617203	-4.366888046	1.0
11	0	101.8159943	1.315000057	4.057257652	12.22116661	-4.531930447	1.0
[Spine1]
9	0	100.8349991	-10.00800037	1.23847115	17.27019882	-2.137388468	1.0
10	0	100.8349991	-10.00800037	1.338677168	17.11800194	-2.263025284	1.0
11	0	100.8349991	-10.00800037	1.286286354	16.90466499	-2.266001701	1.0
[Spine2]
9	0	91	-13.73399925	0.9765205979	17.23777199	-2.49504137	1.0
10	0	91	-13.73399925	1.073093653	17.08772087	-2.622633934	1.0
11	0	91	-13.73399925	1.019618154	16.87401199	-2.629765272	1.0
[Neck]
9	0	166.7169952	-25.16200066	2.861418724	4.675497532	0.2789904475	1.0
10	0	166.7169952	-25.16200066	2.985871077	4.854370117	-0.2421606481	1.0
11	0	166.7169952	-25.16200066	3.260143757	5.190196991	-0.7330429554	1.0
[Head]
9	0	96.17900085	16.84999847	-15.20568657	34.9800148	-9.003979683	1.0
10	0	96.17900085	16.84999847	-15.31648159	35.14008713	-9.505966187	1.0
11	0	96.17900085	16.84999847	-15.03816032	36.11210632	-10.1021843	1.0
[LeftEye]
9	30.6760006	64.09500122	92.83599854	0	0	0	1.0
10	30.6760006	64.09500122	92.83599854	0	0	0	1.0
11	30.6760006	64.09500122	92.83599854	0	0	0	1.0
[RightEye]
9	-30.6760006	64.09500122	92.83499908	0	0	0	1.0
10	-30.6760006	64.09500122	92.83499908	0	0	0	1.0
11	-30.6760006	64.09500122	92.83499908	0	0	0	1.0
[LeftShoulder]
9	45.70400238	109.4599991	-26.28000069	3.451998949	4.743528843	-11.82268238	1.0
10	45.70400238	109.4599991	-26.28000069	3.567390919	3.760490417	-12.10889435	1.0
11	45.70400238	109.4599991	-26.28000069	3.654047728	3.075571775	-12.44978619	1.0
[LeftArm]
9	105.923996	-5.24600029	-22.32099915	14.91748142	18.22661972	-61.78580093	1.0
10	105.923996	-5.24600029	-22.32099915	14.41383839	13.15420628	-62.29379272	1.0
11	105.923996	-5.24600029	-22.32099915	14.81110001	5.884624004	-63.57787704	1.0
[LeftForeArm]
9	278.414978	-0.0009999999311	0	-5.336732443e-07	-22.16374779	-0.0002081771963	1.0
10	278.414978	-0.0009999999311	0	-1.385273094e-06	-20.77015114	-0.0001980906964	1.0
11	278.414978	-0.0009999999311	0	-2.307578143e-06	-18.40871811	-0.000201268791	1.0
[LeftHand]
9	283.2879944	0	0	19.86454582	10.2886858	-12.01319122	1.0
10	283.2879944	0	0	25.86427116	14.14393425	-16.17076492	1.0
11	283.2879944	0	0	34.57894516	14.14391899	-17.06229782	1.0
[LeftHandThumb1]
9	24.6609993	-15.75	26.8239994	9.284598351	4.643045902	0.4337728918	1.0
10	24.6609993	-15.75	26.8239994	8.706983566	3.32671833	0.2966480255	1.0
11	24.6609993	-15.75	26.8239994	7.833112717	1.566641927	0.4380456507	1.0
[LeftHandThumb2]
9	32.29800034	-18.64699936	18.64699936	3.78504014	12.9586935	12.42898655	1.0
10	32.29800034	-18.64699936	18.64699936	3.511066914	14.68131638	11.93527699	1.0
11	32.29800034	-18.64699936	18.64699936	3.688169241	17.23471451	11.26970959	1.0
[LeftHandThumb3]
9	26.52600098	-15.31499958	15.31499958	3.35546875	13.53358459	0.6068153381	1.0
10	26.52600098	-15.31499958	15.31499958	3.224489927	13.17164898	0.7013369799	1.0
11	26.52600098	-15.31499958	15.31499958	3.078076839	12.76621914	0.8081489205	1.0
[LeftHandThumb4]
9	19.54599953	-11.28499985	11.28499985	0	0	0	1.0
10	19.54599953	-11.28499985	11.28499985	0	0	0	1.0
11	19.54599953	-11.28499985	11.28499985	0	0	0	1.0
[LeftHandIndex1]
9	91.09299469	-5.170999527	22.60099792	-0.1019229665	2.077615023	-7.706662178	1.0
10	91.09299469	-5.170999527	22.60099792	-0.4414201975	2.214804649	-10.92791939	1.0
11	91.09299469	-5.170999527	22.60099792	-0.8718090653	2.315773726	-14.95973492	1.0
[LeftHandIndex2]
9	36.76399994	0	0	-0.1905956268	1.730580568	-9.463619232	1.0
10	36.76399994	0	0	-0.1749290079	1.679353476	-8.937150955	1.0
11	36.76399994	0	0	-0.1621160656	1.636145473	-8.494115829	1.0
[LeftHandIndex3]
9	28.83100128	0	0	-0.1165927276	0.8429865241	-10.54917145	1.0
10	28.83100128	0	0	-0.106687434	0.7883453965	-9.996965408	1.0
11	28.83100128	0	0	-0.09932409227	0.7457005978	-9.566649437	1.0
[LeftHandIndex4]
9	23.92700005	0	0	0	0	0	1.0
10	23.92700005	0	0	0	0	0	1.0
11	23.92700005	0	0	0	0	0	1.0
[LeftHandMiddle1]
9	95.33399963	0	0	-1.929263353	6.955963135	-19.38174057	1.0
10	95.33399963	0	0	-2.429974318	6.941389084	-23.35333443	1.0
11	95.33399963	0	0	-3.057243109	6.876275539	-28.17313194	1.0
[LeftHandMiddle2]
9	36.98199844	0	0	-0.4506120384	2.378553152	-16.12302208	1.0
10	36.98199844	0	0	-0.4462420046	2.369288445	-16.02203941	1.0
11	36.98199844	0	0	-0.4482010305	2.373432398	-16.06718254	1.0
[LeftHandMiddle3]
9	29.50900078	0	0	-0.1100597829	1.309490681	-10.45166016	1.0
10	29.50900078	0	0	-0.107879959	1.298756599	-10.34194756	1.0
11	29.50900078	0	0	-0.1088769436	1.303660154	-10.39200401	1.0
[LeftHandMiddle4]
9	28.3390007	0	0	0	0	0	1.0
10	28.3390007	0	0	0	0	0	1.0
11	28.3390007	0	0	0	0	0	1.0
[LeftHandRing1]
9	91.04499817	-0.4390000105	-18.65100098	-3.65634203	13.4193449	-31.06926918	1.0
10	91.04499817	-0.4390000105	-18.65100098	-4.022904396	13.28467274	-33.82856369	1.0
11	91.04499817	-0.4390000105	-18.65100098	-4.496555328	12.9235239	-37.41621017	1.0
[LeftHandRing2]
9	31.54000092	0	0	-0.244390592	2.230440617	-19.28930283	1.0
10	31.54000092	0	0	-0.2377369255	2.208630562	-19.05902672	1.0
11	31.54000092	0	0	-0.2356106341	2.201612949	-18.98490715	1.0
[LeftHandRing3]
9	29.37700081	0	0	-0.01801981591	1.551005125	-15.71958065	1.0
10	29.37700081	0	0	-0.01384995878	1.527219892	-15.47718239	1.0
11	29.37700081	0	0	-0.01274777856	1.52085793	-15.41223431	1.0
[LeftHandRing4]
9	26.47500038	0	0	0	0	0	1.0
10	26.47500038	0	0	0	0	0	1.0
11	26.47500038	0	0	0	0	0	1.0
[LeftHandPinky1]
9	80.77799988	-4.887000084	-38.06099701	-5.718894958	16.21366692	-38.96999359	1.0
10	80.77799988	-4.887000084	-38.06099701	-5.928284168	15.94395924	-41.28347778	1.0
11	80.77799988	-4.887000084	-38.06099701	-6.226957321	15.68172932	-44.15266418	1.0
[LeftHandPinky2]
9	36	0	0	-0.7715950608	2.395921469	-27.11174965	1.0
10	36	0	0	-0.7552271485	2.367694616	-26.7852211	1.0
11	36	0	0	-0.7478627563	2.354825735	-26.63716888	1.0
[LeftHandPinky3]
9	21.14200211	0	0	-0.2622781396	2.125024796	-12.9112711	1.0
10	21.14200211	0	0	-0.2524702251	2.094207048	-12.58860111	1.0
11	21.14200211	0	0	-0.2479964793	2.079940081	-12.43945885	1.0
[LeftHandPinky4]
9	19.75699997	0	0	0	0	0	1.0
10	19.75699997	0	0	0	0	0	1.0
11	19.75699997	0	0	0	0	0	1.0
[RightShoulder]
9	-45.70000076	109.4620056	-26.28000069	6.876887798	22.48849297	16.037117	1.0
10	-45.70000076	109.4620056	-26.28000069	6.547615051	21.67445374	15.09457302	1.0
11	-45.70000076	109.4620056	-26.28000069	6.380209923	21.34945107	14.55474281	1.0
[RightArm]
9	-105.9280014	-5.248000145	-22.32099915	6.800039768	14.03976345	47.39023972	1.0
10	-105.9280014	-5.248000145	-22.32099915	4.672439575	10.74903488	53.34490967	1.0
11	-105.9280014	-5.248000145	-22.32099915	4.410786629	7.13102293	58.95653534	1.0
[RightForeArm]
9	-278.414978	0	0	6.687417226e-06	32.08678818	-1.960462441e-06	1.0
10	-278.414978	0	0	-4.721261121e-06	30.99697685	-1.724671165e-05	1.0
11	-278.414978	0	0	4.11518613e-06	25.51884651	3.216968025e-06	1.0
[RightHand]
9	-283.2879944	0	0.0009999999311	18.16527367	21.84547997	0.3083745539	1.0
10	-283.2879944	0	0.0009999999311	13.47365856	26.72244644	-11.03081036	1.0
11	-283.2879944	0	0.0009999999311	9.519371033	28.84682846	-17.46658516	1.0
[RightHandPinky1]
9	-80.76699829	-4.885000229	-38.06000137	-6.823813915	-14.69121075	48.36891937	1.0
10	-80.76699829	-4.885000229	-38.06000137	-6.725921631	-14.95105076	47.96184921	1.0
11	-80.76699829	-4.885000229	-38.06000137	-6.478218079	-15.41482067	46.21869278	1.0
[RightHandPinky2]
9	-36	0	0.0009999999311	-0.7907696366	-2.4281497	27.50681686	1.0
10	-36	0	0.0009999999311	-0.7620307207	-2.379076004	26.93752289	1.0
11	-36	0	0.0009999999311	-0.7471113801	-2.353134155	26.63780975	1.0
[RightHandPinky3]
9	-21.14200211	0	0	-0.4782516062	0.7178832889	14.91763878	1.0
10	-21.14200211	0	0	-0.459192723	0.771594584	14.34991264	1.0
11	-21.14200211	0	0	-0.4493767619	0.7999468446	14.05103683	1.0
[RightHandPinky4]
9	-19.75699997	0	0	0	0	0	1.0
10	-19.75699997	0	0	0	0	0	1.0
11	-19.75699997	0	0	0	0	0	1.0
[RightHandRing1]
9	-91.03599548	-0.4390000105	-18.65100098	-5.180418968	-12.0766449	42.63683701	1.0
10	-91.03599548	-0.4390000105	-18.65100098	-5.110116005	-12.1398201	42.11110306	1.0
11	-91.03599548	-0.4390000105	-18.65100098	-4.842181683	-12.49978924	40.06238937	1.0
[RightHandRing2]
9	-31.54000092	0	0	-0.2782912552	-2.336782217	20.41807556	1.0
10	-31.54000092	0	0	-0.2580933869	-2.274225235	19.75481987	1.0
11	-31.54000092	0	0	-0.2407284081	-2.218358517	19.16445351	1.0
[RightHandRing3]
9	-29.37700081	0	0	-0.091241844	0.3338287473	15.32213783	1.0
10	-29.37700081	0	0	-0.08057108521	0.398694545	14.66213608	1.0
11	-29.37700081	0	0	-0.07168834656	0.4565513432	14.07442093	1.0
[RightHandRing4]
9	-26.47500038	0	0	0	0	0	1.0
10	-26.47500038	0	0	0	0	0	1.0
11	-26.47500038	0	0	0	0	0	1.0
[RightHandMiddle1]
9	-95.32500458	0	0	-3.866266966	-6.039412022	34.25338364	1.0
10	-95.32500458	0	0	-3.787540674	-6.20948267	33.65991211	1.0
11	-95.32500458	0	0	-3.477637529	-6.623662949	31.33966446	1.0
[RightHandMiddle2]
9	-36.98199844	0	0	-0.5078914762	-2.495680809	17.41243172	1.0
10	-36.98199844	0	0	-0.4823658466	-2.444239378	16.84551239	1.0
11	-36.98199844	0	0	-0.4577505291	-2.393376589	16.28773499	1.0
[RightHandMiddle3]
9	-29.50900078	0	0	-0.2382838279	-1.627790809	15.36982536	1.0
10	-29.50900078	0	0	-0.222557351	-1.573709011	14.80356693	1.0
11	-29.50900078	0	0	-0.2076531798	-1.520450234	14.24754238	1.0
[RightHandMiddle4]
9	-28.3390007	0	0.0009999999311	0	0	0	1.0
10	-28.3390007	0	0.0009999999311	0	0	0	1.0
11	-28.3390007	0	0.0009999999311	0	0	0	1.0
[RightHandIndex1]
9	-91.08300018	-5.167999744	22.60099792	-1.696871996	-2.47270155	22.30305099	1.0
10	-91.08300018	-5.167999744	22.60099792	-1.647815704	-2.492697716	21.6313591	1.0
11	-91.08300018	-5.167999744	22.60099792	-1.26988852	-2.405777216	18.44535255	1.0
[RightHandIndex2]
9	-36.76399994	0	0	-0.1874130815	-1.720222712	9.358216286	1.0
10	-36.76399994	0	0	-0.1702882648	-1.663767815	8.778686523	1.0
11	-36.76399994	0	0	-0.1603209823	-1.629912019	8.431758881	1.0
[RightHandIndex3]
9	-28.83100128	0	0	-0.2449309677	-0.1832960546	14.10935116	1.0
10	-28.83100128	0	0	-0.2310310751	-0.1267199218	13.53008938	1.0
11	-28.83100128	0	0	-0.2229596227	-0.09278894961	13.18329334	1.0
[RightHandIndex4]
9	-23.92700005	0	0	0	0	0	1.0
10	-23.92700005	0	0	0	0	0	1.0
11	-23.92700005	0	0	0	0	0	1.0
[RightHandThumb1]
9	-24.64799881	-15.72700024	26.82600021	7.581413746	-1.500151515	-1.058413625	1.0
10	-24.64799881	-15.72700024	26.82600021	7.427598476	-1.13567853	-0.88479352	1.0
11	-24.64799881	-15.72700024	26.82600021	7.342895985	-0.9336380959	-0.789042294	1.0
[RightHandThumb2]
9	-32.29800034	-18.64699936	18.64699936	3.771248817	-19.67022896	-9.778418541	1.0
10	-32.29800034	-18.64699936	18.64699936	3.712026119	-19.38461113	-9.387194633	1.0
11	-32.29800034	-18.64699936	18.64699936	3.893856287	-18.76961899	-10.29231358	1.0
[RightHandThumb3]
9	-26.52600098	-15.31399918	15.31399918	3.408532381	-13.6518364	0.2374318242	1.0
10	-26.52600098	-15.31399918	15.31399918	3.1334939	-13.26698208	0.3022092283	1.0
11	-26.52600098	-15.31399918	15.31399918	2.855609655	-12.25465965	0.1460273713	1.0
[RightHandThumb4]
9	-19.54599953	-11.28499985	11.28499985	0	0	0	1.0
10	-19.54599953	-11.28499985	11.28499985	0	0	0	1.0
11	-19.54599953	-11.28499985	11.28499985	0	0	0	1.0
[LeftUpLeg]
9	82.07800293	-67.51699829	-15.99599934	-29.52660179	-4.590649128	-11.72421074	1.0
10	82.07800293	-67.51699829	-15.99599934	-24.39356613	-4.767083168	-13.38339901	1.0
11	82.07800293	-67.51699829	-15.99599934	-17.93895912	-3.644419193	-14.1086235	1.0
[LeftLeg]
9	0	-443.7049866	2.845999956	24.57342911	4.066910267	5.0989995	1.0
10	0	-443.7049866	2.845999956	24.54280281	4.286211967	4.995913029	1.0
11	0	-443.7049866	2.845999956	19.93777275	4.498814583	4.644399166	1.0
[LeftFoot]
9	0	-444.2789917	-29.8219986	2.688691616	7.032454491	5.997814655	1.0
10	0	-444.2789917	-29.8219986	-0.1773400456	7.237721443	5.926767349	1.0
11	0	-444.2789917	-29.8219986	-2.889292479	6.937510967	4.771107197	1.0
[LeftToeBase]
9	0	-87.28699493	107.1060028	-4.131943226	3.237916462e-05	-1.106397917e-06	1.0
10	0	-87.28699493	107.1060028	-2.24419713	-4.265572352e-05	-7.79728623e-07	1.0
11	0	-87.28699493	107.1060028	-1.512537956	2.542998118e-05	-4.216139587e-06	1.0
[RightUpLeg]
9	-82.07800293	-67.51699829	-15.99599934	14.27655411	-11.13111877	-4.209369183	1.0
10	-82.07800293	-67.51699829	-15.99599934	4.275486946	-9.507630348	-4.671368122	1.0
11	-82.07800293	-67.51699829	-15.99599934	-6.92300272	-7.361543179	-4.529784679	1.0
[RightLeg]
9	0	-443.7049866	2.861999989	34.89067078	5.467453003	-5.267057419	1.0
10	0	-443.7049866	2.861999989	50.8119545	2.542812586	-8.549892426	1.0
11	0	-443.7049866	2.861999989	61.18766403	0.7220261097	-11.50235844	1.0
[RightFoot]
9	0	-444.2770081	-29.83799934	13.77571297	-2.621017933	9.480764389	1.0
10	0	-444.2770081	-29.83799934	17.94956017	-4.579932213	9.285656929	1.0
11	0	-444.2770081	-29.83799934	13.7454195	-5.515028	6.276984692	1.0
[RightToeBase]
9	0	-87.28699493	107.1060028	-12.52945232	1.015280395e-05	-1.271014207e-05	1.0
10	0	-87.28699493	107.1060028	-4.465515614	-1.326712209e-05	1.325903577e-05	1.0
11	0	-87.28699493	107.1060028	-1.614900947	-3.045323319e-05	-1.238229288e-05	1.0
[EndOfFile]
